HIERARCHY
ROOT hip
{
	OFFSET 0.000000 0.000000 0.000000 
	CHANNELS 6 Xposition Yposition Zposition Xrotation Zrotation Yrotation
	JOINT abdomen
	{
		OFFSET 0.000000 3.402643 0.000000 
		CHANNELS 3 Xrotation Zrotation Yrotation
		JOINT chest
		{
			OFFSET 0.000000 8.438565 -0.680529 
			CHANNELS 3 Xrotation Zrotation Yrotation
			JOINT neck
			{
				OFFSET 0.000000 10.207942 -0.272212 
				CHANNELS 3 Xrotation Zrotation Yrotation
				JOINT head
				{
					OFFSET 0.000000 3.130431 0.000000 
					CHANNELS 3 Xrotation Zrotation Yrotation
					End Site
					{
						OFFSET 0.000000 3.130435 0.000000 
					}
				}
			}
			JOINT lCollar
			{
				OFFSET 3.470700 6.669187 -0.816635 
				CHANNELS 3 Yrotation Zrotation Xrotation
				JOINT lShldr
				{
					OFFSET 3.198488 0.000000 0.000000 
					CHANNELS 3 Zrotation Yrotation Xrotation
					JOINT lForeArm
					{
						OFFSET 10.139888 0.000000 0.000000 
						CHANNELS 3 Yrotation Zrotation Xrotation
						JOINT lHand
						{
							OFFSET 8.370511 0.000000 0.000000 
							CHANNELS 3 Zrotation Yrotation Xrotation
							End Site
							{
								OFFSET 4.083176 0.000000 0.000000 
							}
						}
					}
				}
			}
			JOINT rCollar
			{
				OFFSET -3.470700 6.669187 -0.816635 
				CHANNELS 3 Yrotation Zrotation Xrotation
				JOINT rShldr
				{
					OFFSET -3.198488 0.000000 0.000000 
					CHANNELS 3 Zrotation Yrotation Xrotation
					JOINT rForeArm
					{
						OFFSET -10.139888 0.000000 0.000000 
						CHANNELS 3 Yrotation Zrotation Xrotation
						JOINT rHand
						{
							OFFSET -8.370511 0.000000 0.000000 
							CHANNELS 3 Zrotation Yrotation Xrotation
							End Site
							{
								OFFSET -4.083176 0.000000 0.000000 
							}
						}
					}
				}
			}
		}
	}
	JOINT lThigh
	{
		OFFSET 5.308129 -1.633274 1.361059 
		CHANNELS 3 Xrotation Zrotation Yrotation
		JOINT lShin
		{
			OFFSET -2.041588 -20.007561 0.000000 
			CHANNELS 3 Xrotation Zrotation Yrotation
			JOINT lFoot
			{
				OFFSET 0.000000 -19.190928 -1.224953 
				CHANNELS 3 Xrotation Yrotation Zrotation
				End Site
				{
					OFFSET 0.000000 -2.449906 4.627600 
				}
			}
		}
	}
	JOINT rThigh
	{
		OFFSET -5.308129 -1.633274 1.361059 
		CHANNELS 3 Xrotation Zrotation Yrotation
		JOINT rShin
		{
			OFFSET 2.041588 -20.007561 0.000000 
			CHANNELS 3 Xrotation Zrotation Yrotation
			JOINT rFoot
			{
				OFFSET 0.000000 -19.190928 -1.224953 
				CHANNELS 3 Xrotation Yrotation Zrotation
				End Site
				{
					OFFSET 0.000000 -2.449906 4.627600 
				}
			}
		}
	}
}
MOTION
Frames: 16
Frame Time: 0.033333
19.838415 45.246155 58.730465 -7.961870 1.537774 2.363153 30.620182 -4.858616 5.612484 -20.839844 0.000000 0.000000 7.501809 10.512107 22.791868 -2.520846 -1.255050 0.218350 -4.754609 -0.109183 -0.002653 -59.798046 11.968540 5.255935 -41.098930 -24.621862 26.135021 -0.043828 -3.616769 -0.138822 4.754609 0.109183 -0.002672 82.529953 -6.052618 -10.943836 10.204552 0.426015 23.034788 5.952246 12.556503 33.404251 -5.585487 18.764612 9.889939 27.351349 -4.311128 -0.777735 -6.958681 0.665235 -14.145988 15.698797 -27.214222 -23.566721 9.771821 4.740466 -6.501210 0.750501 -3.782311 11.062992 
19.026228 44.988770 58.161362 -7.797488 1.944755 2.634286 31.007656 -4.339523 5.443871 -20.839844 0.000000 0.000000 6.999562 8.330292 25.447838 -2.520846 -1.255050 0.218350 -4.754609 -0.109183 -0.002653 -56.655113 10.086691 4.753290 -41.689743 -24.292711 25.047108 3.887080 -1.144423 -0.686121 4.754609 0.109183 -0.002672 81.615791 -5.236306 -8.665476 18.210201 1.435731 26.129166 8.019292 9.533019 33.578861 -7.860287 20.354836 10.903700 29.480801 -4.761162 -1.649923 -4.237943 -1.548082 -15.862017 12.690225 -28.111113 -23.890594 15.602619 5.453804 -6.215115 -4.818300 -3.589369 11.206450 
18.270344 44.764374 57.511021 -7.457187 2.294899 3.772205 31.391327 -3.450784 4.214866 -20.839844 0.000000 0.000000 6.477759 7.013371 27.127129 -2.520846 -1.255050 0.218350 -4.754609 -0.109183 -0.002653 -54.603802 9.415709 2.952970 -43.335434 -23.137665 20.449978 7.209925 1.440455 -4.003913 4.754609 0.109183 -0.002672 81.137367 -2.697460 -5.707368 25.799381 2.476222 28.245970 10.452907 8.238823 33.398235 -11.005717 22.879684 12.782825 32.064598 -5.836504 -3.214378 0.782577 -6.324689 -17.625523 10.183036 -28.708309 -23.895035 20.056328 5.844755 -5.983148 -6.978681 -3.692150 13.258560 
17.661127 44.671974 56.917545 -7.117111 2.664885 5.019309 31.516249 -2.603707 2.849745 -20.839844 0.000000 0.000000 6.688675 6.635010 28.040350 -2.520846 -1.255050 0.218350 -4.754609 -0.109183 -0.002653 -53.795616 8.833721 0.759458 -44.815304 -21.196796 15.076630 7.386348 2.941246 -7.819505 4.754609 0.109183 -0.002672 81.273117 1.027928 -3.228549 32.109535 3.589706 28.780396 12.413471 7.807303 33.528648 -13.544393 25.016510 14.292574 32.809113 -6.792868 -4.351739 7.255511 -10.671332 -18.657747 8.305072 -28.919857 -23.146452 22.898283 6.078985 -5.870760 -8.331537 -4.655887 13.754678 
17.211830 44.761322 56.447433 -7.031199 3.004619 5.714087 31.467201 -1.986657 2.036043 -20.839844 0.000000 0.000000 7.736274 6.966738 28.239069 -2.520846 -1.255050 0.218350 -4.754609 -0.109183 -0.002653 -53.272724 7.610151 -0.844597 -45.462208 -19.388372 11.462345 5.675013 3.025158 -10.289786 4.754609 0.109183 -0.002672 81.718925 4.629274 -0.560489 38.387608 5.190294 28.260813 13.860807 7.150050 31.994955 -14.208340 26.129423 15.163324 30.763130 -7.076191 -3.853394 10.389961 -11.611688 -18.405449 7.409287 -28.824577 -22.467995 23.813986 6.234395 -5.840461 -8.721276 -5.367767 13.264084 
16.914785 44.970993 56.095615 -7.171044 3.420365 5.693157 31.313528 -1.761098 1.738604 -20.839844 0.000000 0.000000 9.067121 7.564204 28.223932 -2.520846 -1.255050 0.218350 -4.754609 -0.109183 -0.002653 -52.369492 5.796052 -1.854136 -45.384979 -17.947256 10.678174 4.487866 1.980714 -9.725691 4.754609 0.109183 -0.002672 82.168686 7.605217 2.488667 45.190708 7.747483 27.165308 14.875042 6.505310 28.992996 -12.596969 26.284531 15.711305 25.067999 -6.752171 -2.034719 10.886545 -10.106355 -18.214224 7.330747 -28.668541 -22.179277 23.110310 6.165767 -5.872772 -8.251269 -5.441715 12.791565 
16.758419 45.183716 55.843803 -7.368237 3.612579 5.148711 31.117279 -1.724614 1.776002 -20.839844 0.000000 0.000000 10.260115 7.996320 28.719114 -2.520846 -1.255050 0.218350 -4.754609 -0.109183 -0.002653 -50.947502 3.708462 -3.001483 -44.944832 -16.310793 11.182165 3.999830 0.511634 -7.253351 4.754609 0.109183 -0.002672 82.802345 10.442159 5.973247 51.912506 11.088182 25.832426 14.883863 6.233898 25.767319 -9.257560 25.922028 16.317751 16.525211 -6.017835 0.162936 10.469179 -8.063564 -16.859228 7.625647 -28.436958 -22.003393 21.608530 6.205722 -5.844651 -7.392795 -5.184979 12.504238 
16.756998 45.312668 55.687439 -7.571157 3.291430 4.279722 30.978828 -1.296951 2.327086 -20.839844 0.000000 0.000000 10.946294 7.863894 29.570429 -2.520846 -1.255050 0.218350 -4.754609 -0.109183 -0.002653 -49.204269 1.443016 -4.659783 -44.266708 -14.206839 11.342233 3.600418 -0.796337 -4.685544 4.754609 0.109183 -0.002672 83.041489 13.319829 9.723858 58.787548 15.223358 24.031282 13.835993 6.184327 22.429171 -4.863932 25.398115 17.355999 6.867069 -4.947329 2.855416 10.214422 -5.821625 -14.459710 7.956512 -28.044588 -21.799364 20.011478 6.506144 -5.705490 -6.525894 -4.627219 12.391451 
16.927528 45.318245 55.595036 -7.635300 2.671450 3.402167 30.829985 -0.327069 3.131396 -20.839844 0.000000 0.000000 10.907253 7.161599 30.277473 -2.520846 -1.255050 0.218350 -4.754609 -0.109183 -0.002653 -46.726368 -0.872717 -6.472314 -43.509312 -12.265701 11.136122 3.386608 -1.518572 -2.725483 4.754609 0.109183 -0.002672 81.936852 16.338619 13.420941 66.403633 20.362749 21.254158 12.209484 6.143676 18.849907 0.818688 23.229742 19.727701 -4.791018 -2.084388 7.178195 11.722539 -5.714791 -12.856832 7.925085 -27.698790 -21.630487 19.009090 6.781184 -5.568095 -5.822100 -3.974880 12.386986 
17.273869 45.174072 55.523960 -7.445813 1.965719 2.985490 30.479483 0.936686 3.467170 -20.839844 0.000000 0.000000 10.482355 6.725976 30.811625 -2.520846 -1.255050 0.218350 -4.754609 -0.109183 -0.002653 -43.105206 -3.035521 -8.319705 -42.778812 -10.835410 10.517961 3.254515 -1.978892 -1.917928 4.754609 0.109183 -0.002672 80.005966 19.564344 16.603603 75.180405 25.488245 17.053219 11.061274 6.456450 15.779088 0.887511 23.239813 20.689993 -4.606240 -1.528806 8.544037 9.096571 -5.316587 -12.847945 7.242882 -27.584629 -21.661182 19.301479 6.722340 -5.576899 -5.574269 -3.390221 12.542537 
17.716005 44.911095 55.442734 -6.954790 1.250499 2.982274 29.994673 1.823418 3.178417 -20.839844 0.000000 0.000000 9.491165 7.363102 31.197552 -2.520846 -1.255050 0.218350 -4.754609 -0.109183 -0.002653 -38.681309 -5.020964 -10.544641 -42.337845 -9.478483 9.434124 3.055871 -2.526181 -1.644561 4.754609 0.109183 -0.002672 78.468361 22.992634 19.084263 84.181564 28.959299 12.408446 10.105232 7.667736 14.424567 0.377968 23.363024 21.456448 -4.463954 -1.187945 9.241591 9.771638 -6.168241 -15.282694 5.756714 -27.708033 -21.632980 20.829510 6.524589 -5.622787 -5.773323 -3.069263 12.705016 
18.187439 44.566383 55.358459 -6.328157 0.184416 2.879940 29.507097 2.587996 3.216318 -20.839844 0.000000 0.000000 8.251626 8.873446 31.326290 -2.520846 -1.255050 0.218350 -4.754609 -0.109183 -0.002653 -34.329441 -6.866752 -13.279695 -42.439831 -7.855790 8.095341 3.266168 -3.362889 -0.979899 4.754609 0.109183 -0.002672 77.320587 26.217077 20.826263 92.423767 30.731247 8.224820 8.509578 9.452426 14.323082 -0.470312 24.411535 22.999237 -4.330635 -1.032029 10.213956 13.319190 -7.747443 -19.095854 3.747691 -27.926266 -21.957823 23.228662 6.859715 -5.555369 -6.471736 -1.971211 12.218533 
18.635567 44.247055 55.258446 -5.655266 -1.059273 2.477917 29.161633 3.230976 3.737571 -20.839844 0.000000 0.000000 7.111353 10.166062 31.529694 -2.520846 -1.255050 0.218350 -4.754609 -0.109183 -0.002653 -30.660385 -8.307114 -16.388744 -43.698017 -5.894047 6.226835 3.926797 -4.448744 -0.178162 4.754609 0.109183 -0.002672 76.247803 29.371923 22.373978 99.676849 31.814980 4.098248 5.417839 11.054170 13.827637 -5.030097 28.435514 23.578655 4.130715 -3.391897 8.837060 13.187842 -7.280017 -19.593370 1.834650 -28.328590 -22.698324 25.380999 7.774712 -4.909343 -6.928813 0.632231 11.009934 
18.998865 44.020618 55.138126 -5.217622 -1.867236 2.318827 29.174490 3.447191 4.201762 -20.839844 0.000000 0.000000 6.068847 10.689810 31.649187 -2.520846 -1.255050 0.218350 -4.754609 -0.109183 -0.002653 -28.041719 -9.313765 -19.318865 -46.558285 -3.911216 3.857399 4.656884 -5.615017 0.001340 4.754609 0.109183 -0.002672 75.649025 32.025150 23.912945 105.635368 32.577385 0.222598 1.097495 12.470177 12.779706 -6.797993 30.072929 22.867067 6.328925 -4.380251 8.069966 15.020417 -5.989182 -18.947643 0.719133 -29.622919 -23.613008 27.154472 8.338738 -2.808259 -5.499501 4.085319 13.328468 
19.258034 43.860195 55.072124 -5.394818 -2.255600 2.937399 29.533848 3.580612 4.843836 -20.839844 0.000000 0.000000 5.893497 10.749527 30.866901 -2.520846 -1.255050 0.218350 -4.754609 -0.109183 -0.002653 -27.656784 -10.967798 -21.804583 -50.550930 -1.464378 1.649537 4.488562 -7.150147 0.519031 4.754609 0.109183 -0.002672 75.180191 33.113869 24.723322 110.294868 32.961685 -3.155989 -2.585119 13.941485 11.489391 -8.554966 31.347666 22.182789 9.478046 -5.523913 6.725708 14.557281 -5.520185 -18.277325 1.239389 -31.005177 -23.900581 28.529039 7.854547 -1.168792 -5.151786 4.778975 13.479877 
19.374851 43.825161 55.103603 -6.186316 -2.223319 4.596218 29.810488 3.404306 5.405020 -20.839844 0.000000 0.000000 7.541927 10.902317 29.122297 -2.520846 -1.255050 0.218350 -4.754609 -0.109183 -0.002653 -29.456032 -13.185773 -23.076311 -55.621990 0.776150 1.010173 4.119715 -9.116945 2.215926 4.754609 0.109183 -0.002672 74.789230 31.999228 24.583380 113.315338 33.166477 -5.259361 -5.027702 15.394490 10.828419 -9.112283 31.546701 21.985668 10.722858 -6.090312 5.743881 14.097728 -6.434003 -17.599567 4.527357 -31.840961 -24.189728 28.085758 6.671901 -1.532488 -4.831612 1.930613 11.048426 
